# Blender v2.72 (sub 0) OBJ File: ''
# www.blender.org
o Cube_Cube.001
v -0.229594 -0.065094 0.224759
v -0.229594 -0.065094 -0.224759
v 0.229594 -0.065094 -0.224759
v 0.229594 -0.065094 0.224759
v -0.229594 0.065094 0.224759
v -0.229594 0.065094 -0.224759
v 0.229594 0.065094 -0.224759
v 0.229594 0.065094 0.224759
v -0.336280 0.095342 0.000000
v -0.336280 -0.095342 0.000000
v 0.000000 0.095342 -0.329200
v 0.000000 -0.095342 -0.329200
v 0.336280 0.095342 0.000000
v 0.336280 -0.095342 0.000000
v 0.000000 0.095342 0.329200
v 0.000000 -0.095342 0.329200
v 0.000000 -0.095342 0.000000
v 0.000000 0.095342 0.000000
v -0.847546 -0.065094 -0.911413
v -0.847546 0.065094 -0.911413
v -0.481722 0.095342 -1.898588
v -0.481722 -0.095342 -1.898588
v -0.869842 -0.065094 0.868028
v -0.869842 0.065094 0.868028
v -1.861468 0.095342 0.464473
v -1.861468 -0.095342 0.464473
v 0.867730 -0.065094 0.890773
v 0.867730 0.065094 0.890773
v 0.467983 0.095342 1.869022
v 0.467983 -0.095342 1.869022
v 0.889137 -0.065094 -0.881963
v 0.889137 0.065094 -0.881963
v 1.876125 0.095342 -0.471284
v 1.876125 -0.095342 -0.471284
vn -0.903400 0.000000 -0.428800
vn 0.414100 0.000000 -0.910200
vn 0.903400 0.000000 0.428800
vn -0.414100 0.000000 0.910200
vn 0.232200 -0.943300 -0.237100
vn -0.232200 0.943300 -0.237100
vn -0.291300 0.000000 -0.956600
vn 0.956000 0.000000 -0.293400
vn 0.292700 0.000000 0.956200
vn -0.956800 0.000000 0.290800
vn 0.000000 -1.000000 0.000000
vn -0.232200 -0.943300 -0.237100
vn 0.000000 1.000000 0.000000
vn 0.232200 0.943300 -0.237100
vn -0.937700 0.000000 -0.347500
vn -0.114800 0.992800 0.035200
vn -0.024100 -0.999500 0.021700
vn -0.743300 0.000000 0.668900
vn -0.376900 0.000000 0.926200
vn 0.035500 0.992500 0.116700
vn 0.021700 -0.999500 0.021600
vn 0.708800 0.000000 0.705400
vn 0.925700 0.000000 0.378300
vn 0.114900 0.992800 -0.034900
vn 0.022600 -0.999500 -0.021700
vn 0.722100 0.000000 -0.691800
vn 0.384200 0.000000 -0.923300
vn -0.035700 0.992500 -0.116600
vn -0.021600 -0.999500 -0.021700
vn -0.705800 0.000000 -0.708400
vn 0.232200 -0.943300 0.237100
vn -0.232200 -0.943300 0.237100
vn -0.232200 0.943300 0.237100
vn 0.232200 0.943300 0.237100
vn -0.024100 0.999500 0.021700
vn -0.114800 -0.992800 0.035200
vn 0.021700 0.999500 0.021600
vn 0.035500 -0.992500 0.116700
vn 0.022600 0.999500 -0.021700
vn 0.114900 -0.992800 -0.034900
vn -0.021600 0.999500 -0.021700
vn -0.035700 -0.992500 -0.116600
s off
f 6//1 2//1 10//1
f 7//2 3//2 12//2
f 8//3 4//3 14//3
f 5//4 1//4 16//4
f 12//5 3//5 14//5
f 11//6 6//6 9//6
f 10//7 26//7 25//7
f 12//8 22//8 21//8
f 14//9 34//9 33//9
f 16//10 30//10 29//10
f 16//11 17//11 14//11
f 10//11 17//11 16//11
f 10//12 2//12 12//12
f 15//13 18//13 9//13
f 13//13 18//13 15//13
f 13//14 7//14 11//14
f 21//15 22//15 19//15
f 6//16 11//16 21//16
f 2//17 19//17 22//17
f 6//18 20//18 19//18
f 25//19 26//19 23//19
f 5//20 9//20 25//20
f 1//21 23//21 26//21
f 5//22 24//22 23//22
f 29//23 30//23 27//23
f 8//24 15//24 29//24
f 4//25 27//25 30//25
f 8//26 28//26 27//26
f 33//27 34//27 31//27
f 7//28 13//28 33//28
f 3//29 31//29 34//29
f 7//30 32//30 31//30
f 9//1 6//1 10//1
f 11//2 7//2 12//2
f 13//3 8//3 14//3
f 15//4 5//4 16//4
f 17//11 12//11 14//11
f 18//13 11//13 9//13
f 9//7 10//7 25//7
f 11//8 12//8 21//8
f 13//9 14//9 33//9
f 15//10 16//10 29//10
f 4//31 16//31 14//31
f 1//32 10//32 16//32
f 17//11 10//11 12//11
f 5//33 15//33 9//33
f 8//34 13//34 15//34
f 18//13 13//13 11//13
f 20//15 21//15 19//15
f 20//35 6//35 21//35
f 12//36 2//36 22//36
f 2//18 6//18 19//18
f 24//19 25//19 23//19
f 24//37 5//37 25//37
f 10//38 1//38 26//38
f 1//22 5//22 23//22
f 28//23 29//23 27//23
f 28//39 8//39 29//39
f 16//40 4//40 30//40
f 4//26 8//26 27//26
f 32//27 33//27 31//27
f 32//41 7//41 33//41
f 14//42 3//42 34//42
f 3//30 7//30 31//30
